<?xml version="1.0" encoding="utf-8"?>
<!-- Generator: Adobe Illustrator 18.0.0, SVG Export Plug-In . SVG Version: 6.00 Build 0)  -->
<!DOCTYPE svg PUBLIC "-//W3C//DTD SVG 1.1//EN" "http://www.w3.org/Graphics/SVG/1.1/DTD/svg11.dtd">
<svg version="1.1" id="Layer_1" xmlns="http://www.w3.org/2000/svg" xmlns:xlink="http://www.w3.org/1999/xlink" x="0px" y="0px"
	 width="592px" height="296px" viewBox="0 0 592 296" enable-background="new 0 0 592 296" xml:space="preserve">
<g>
	<polygon fill="#B34726" points="74.3,239.4 187.4,126.3 244,126.3 244,296 74.3,296 	"/>
	<polygon fill="#F4A893" points="244,126.3 187.4,126.3 187.4,182.9 	"/>
	<polygon fill="#F4A893" points="187.4,182.9 130.9,182.9 130.9,239.4 	"/>
	<polygon fill="#DC613A" points="130.9,239.4 74.3,239.4 74.3,296 	"/>
	<polygon fill="#DC613A" points="130.9,239.4 244,296 187.4,182.9 	"/>
	<polygon fill="#F28055" points="187.4,126.3 187.4,182.9 130.9,182.9 	"/>
	<polygon fill="#F28055" points="130.9,182.9 130.9,239.4 74.3,239.4 	"/>
	<polygon fill="#F28055" points="244,296 187.4,182.9 244,126.3 	"/>
</g>
<path fill="#F4A893" d="M93,211.1c-0.4-1.4-1-1.4-1.3,0l-1.4,5.6c-0.4,1.4-1.8,2.9-3.3,3.3l-5.6,1.4c-1.4,0.4-1.4,1,0,1.3l5.6,1.4
	c1.4,0.4,2.9,1.8,3.3,3.3l1.4,5.6c0.4,1.4,1,1.4,1.3,0l1.4-5.6c0.4-1.4,1.8-2.9,3.3-3.3l5.6-1.4c1.4-0.4,1.4-1,0-1.3l-5.6-1.4
	c-1.4-0.4-2.9-1.8-3.3-3.3L93,211.1z"/>
<path fill="#F4A893" d="M217.1,93.3c-0.4-1.7-1.1-1.7-1.5,0l-1.6,6.5c-0.4,1.7-2.1,3.4-3.8,3.8l-6.5,1.6c-1.7,0.4-1.7,1.1,0,1.5
	l6.5,1.6c1.7,0.4,3.4,2.1,3.8,3.8l1.6,6.5c0.4,1.7,1.1,1.7,1.5,0l1.6-6.5c0.4-1.7,2.1-3.4,3.8-3.8l6.5-1.6c1.7-0.4,1.7-1.1,0-1.5
	l-6.5-1.6c-1.7-0.4-3.4-2.1-3.8-3.8L217.1,93.3z"/>
<path fill="#F4A893" d="M192.7,262.7c-0.2-1-0.6-1-0.9,0l-0.9,3.7c-0.2,1-1.2,1.9-2.2,2.2l-3.7,0.9c-1,0.2-1,0.6,0,0.9l3.7,0.9
	c1,0.2,1.9,1.2,2.2,2.2l0.9,3.7c0.2,1,0.6,1,0.9,0l0.9-3.7c0.2-1,1.2-1.9,2.2-2.2l3.7-0.9c1-0.2,1-0.6,0-0.9l-3.7-0.9
	c-1-0.2-1.9-1.2-2.2-2.2L192.7,262.7z"/>
<g>
	<rect x="244" y="56" fill="#DC613A" width="144" height="24"/>
	<rect x="244" y="136" fill="#DC613A" width="144" height="24"/>
	<rect x="244" y="176" fill="#DC613A" width="144" height="24"/>
	<rect x="244" y="216" fill="#DC613A" width="144" height="24"/>
	<rect x="244" y="96" fill="#DC613A" width="144" height="24"/>
	<rect x="244" y="256" fill="#DC613A" width="144" height="24"/>
	<rect x="256" y="40" fill="#F28055" width="24" height="256"/>
	<rect x="264" y="40" fill="#F4A893" width="8" height="256"/>
	<rect x="352" y="40" fill="#F28055" width="24" height="256"/>
	<rect x="360" y="40" fill="#F4A893" width="8" height="256"/>
	<circle fill="#DC613A" cx="356" cy="108" r="2"/>
	<circle fill="#DC613A" cx="276" cy="108" r="2"/>
	<circle fill="#DC613A" cx="356" cy="68" r="2"/>
	<circle fill="#DC613A" cx="276" cy="68" r="2"/>
	<circle fill="#DC613A" cx="356" cy="148" r="2"/>
	<circle fill="#DC613A" cx="276" cy="148" r="2"/>
	<circle fill="#DC613A" cx="356" cy="188" r="2"/>
	<circle fill="#DC613A" cx="276" cy="188" r="2"/>
	<circle fill="#DC613A" cx="356" cy="228" r="2"/>
	<circle fill="#DC613A" cx="276" cy="228" r="2"/>
	<circle fill="#DC613A" cx="356" cy="268" r="2"/>
	<circle fill="#DC613A" cx="276" cy="268" r="2"/>
	<rect x="280" y="56" fill="#B34726" width="4" height="24"/>
	<rect x="280" y="96" fill="#B34726" width="4" height="24"/>
	<rect x="280" y="136" fill="#B34726" width="4" height="24"/>
	<rect x="280" y="176" fill="#B34726" width="4" height="24"/>
	<rect x="280" y="216" fill="#B34726" width="4" height="24"/>
	<rect x="280" y="256" fill="#B34726" width="4" height="24"/>
	<rect x="376" y="56" fill="#B34726" width="4" height="24"/>
	<rect x="376" y="96" fill="#B34726" width="4" height="24"/>
	<rect x="376" y="136" fill="#B34726" width="4" height="24"/>
	<rect x="376" y="176" fill="#B34726" width="4" height="24"/>
	<rect x="376" y="216" fill="#B34726" width="4" height="24"/>
	<rect x="376" y="256" fill="#B34726" width="4" height="24"/>
</g>
<g>
	<path fill="#F28055" d="M532,104H404c-4.4,0-8,3.6-8,8v16h144v-16C540,107.6,536.4,104,532,104z"/>
	<path fill="#DC613A" d="M404,256h128c4.4,0,8-3.6,8-8V128H396v120C396,252.4,399.6,256,404,256z"/>
	<circle fill="#F4A893" cx="408" cy="116" r="4"/>
	<circle fill="#F4A893" cx="424" cy="116" r="4"/>
	<circle fill="#F4A893" cx="440" cy="116" r="4"/>
	<line fill="none" stroke="#F28055" stroke-width="4" stroke-miterlimit="10" x1="412" y1="144" x2="452" y2="144"/>
	<line fill="none" stroke="#F28055" stroke-width="4" stroke-miterlimit="10" x1="412" y1="152" x2="468" y2="152"/>
	<line fill="none" stroke="#F28055" stroke-width="4" stroke-miterlimit="10" x1="412" y1="216" x2="452" y2="216"/>
	<line fill="none" stroke="#F28055" stroke-width="4" stroke-miterlimit="10" x1="412" y1="224" x2="492" y2="224"/>
	<line fill="none" stroke="#F28055" stroke-width="4" stroke-miterlimit="10" x1="428" y1="160" x2="524" y2="160"/>
	<line fill="none" stroke="#F28055" stroke-width="4" stroke-miterlimit="10" x1="428" y1="200" x2="508" y2="200"/>
	<line fill="none" stroke="#F28055" stroke-width="4" stroke-miterlimit="10" x1="428" y1="208" x2="484" y2="208"/>
	<line fill="none" stroke="#F28055" stroke-width="4" stroke-miterlimit="10" x1="444" y1="168" x2="484" y2="168"/>
	<line fill="none" stroke="#F28055" stroke-width="4" stroke-miterlimit="10" x1="444" y1="176" x2="476" y2="176"/>
	<line fill="none" stroke="#F28055" stroke-width="4" stroke-miterlimit="10" x1="444" y1="184" x2="492" y2="184"/>
	<line fill="none" stroke="#F28055" stroke-width="4" stroke-miterlimit="10" x1="444" y1="192" x2="460" y2="192"/>
</g>
<g>
	<rect x="520" y="228" fill="#F28055" width="48" height="56"/>
	<polygon fill="#F4A893" points="532,232 532,216 508,240 524,240 	"/>
	<polygon fill="#F28055" points="556,216 556,232 564,240 580,240 	"/>
	<polygon fill="#B34726" points="564,272 556,280 556,296 580,272 	"/>
	<polygon fill="#DC613A" points="532,280 524,272 508,272 532,296 	"/>
	<rect x="532" y="216" fill="#F4A893" width="24" height="16"/>
	<rect x="564" y="240" fill="#DC613A" width="16" height="32"/>
	<rect x="532" y="280" fill="#B34726" width="24" height="16"/>
	<rect x="508" y="240" fill="#F28055" width="16" height="32"/>
</g>
<g>
	<rect x="104" y="44" fill="#F28055" width="48" height="56"/>
	<polygon fill="#F4A893" points="116,48 116,32 92,56 108,56 	"/>
	<polygon fill="#F28055" points="140,32 140,48 148,56 164,56 	"/>
	<polygon fill="#B34726" points="148,88 140,96 140,112 164,88 	"/>
	<polygon fill="#DC613A" points="116,96 108,88 92,88 116,112 	"/>
	<rect x="116" y="32" fill="#F4A893" width="24" height="16"/>
	<rect x="148" y="56" fill="#DC613A" width="16" height="32"/>
	<rect x="116" y="96" fill="#B34726" width="24" height="16"/>
	<rect x="92" y="56" fill="#F28055" width="16" height="32"/>
</g>
<g>
	<rect x="6" y="146" fill="#DC613A" width="24" height="24"/>
	<polygon fill="#F4A893" points="12,148 12,140 0,152 8,152 	"/>
	<polygon fill="#F28055" points="24,140 24,148 28,152 36,152 	"/>
	<polygon fill="#B34726" points="28,164 24,168 24,176 36,164 	"/>
	<polygon fill="#DC613A" points="12,168 8,164 0,164 12,176 	"/>
	<rect x="12" y="140" fill="#F4A893" width="12" height="8"/>
	<rect x="28" y="152" fill="#DC613A" width="8" height="12"/>
	<rect x="12" y="168" fill="#B34726" width="12" height="8"/>
	<rect y="152" fill="#F28055" width="8" height="12"/>
</g>
<g>
	<rect x="430" y="6" fill="#DC613A" width="24" height="24"/>
	<polygon fill="#F4A893" points="436,8 436,0 424,12 432,12 	"/>
	<polygon fill="#F28055" points="448,0 448,8 452,12 460,12 	"/>
	<polygon fill="#B34726" points="452,24 448,28 448,36 460,24 	"/>
	<polygon fill="#DC613A" points="436,28 432,24 424,24 436,36 	"/>
	<rect x="436" fill="#F4A893" width="12" height="8"/>
	<rect x="452" y="12" fill="#DC613A" width="8" height="12"/>
	<rect x="436" y="28" fill="#B34726" width="12" height="8"/>
	<rect x="424" y="12" fill="#F28055" width="8" height="12"/>
</g>
<path fill="#F4A893" d="M164.4,48.7c-0.2-1-0.6-1-0.9,0l-0.9,3.7c-0.2,1-1.2,1.9-2.2,2.2l-3.7,0.9c-1,0.2-1,0.6,0,0.9l3.7,0.9
	c1,0.2,1.9,1.2,2.2,2.2l0.9,3.7c0.2,1,0.6,1,0.9,0l0.9-3.7c0.2-1,1.2-1.9,2.2-2.2l3.7-0.9c1-0.2,1-0.6,0-0.9l-3.7-0.9
	c-1-0.2-1.9-1.2-2.2-2.2L164.4,48.7z"/>
<path fill="#F4A893" d="M508.4,264.7c-0.2-1-0.6-1-0.9,0l-0.9,3.7c-0.2,1-1.2,1.9-2.2,2.2l-3.7,0.9c-1,0.2-1,0.6,0,0.9l3.7,0.9
	c1,0.2,1.9,1.2,2.2,2.2l0.9,3.7c0.2,1,0.6,1,0.9,0l0.9-3.7c0.2-1,1.2-1.9,2.2-2.2l3.7-0.9c1-0.2,1-0.6,0-0.9l-3.7-0.9
	c-1-0.2-1.9-1.2-2.2-2.2L508.4,264.7z"/>
<path fill="#F4A893" d="M580.7,197.1c-0.4-1.4-1-1.4-1.3,0l-1.4,5.6c-0.4,1.4-1.8,2.9-3.3,3.3l-5.6,1.4c-1.4,0.4-1.4,1,0,1.3
	l5.6,1.4c1.4,0.4,2.9,1.8,3.3,3.3l1.4,5.6c0.4,1.4,1,1.4,1.3,0l1.4-5.6c0.4-1.4,1.8-2.9,3.3-3.3l5.6-1.4c1.4-0.4,1.4-1,0-1.3
	l-5.6-1.4c-1.4-0.4-2.9-1.8-3.3-3.3L580.7,197.1z"/>
<path fill="#F4A893" d="M88.2,24.4c-0.1-0.5-0.3-0.5-0.4,0l-0.5,1.9c-0.1,0.5-0.6,1-1.1,1.1l-1.9,0.5c-0.5,0.1-0.5,0.3,0,0.4
	l1.9,0.5c0.5,0.1,1,0.6,1.1,1.1l0.5,1.9c0.1,0.5,0.3,0.5,0.4,0l0.5-1.9c0.1-0.5,0.6-1,1.1-1.1l1.9-0.5c0.5-0.1,0.5-0.3,0-0.4
	l-1.9-0.5c-0.5-0.1-1-0.6-1.1-1.1L88.2,24.4z"/>
</svg>
